<?xml version="1.0" encoding="utf-8"?>
<!-- Generator: Adobe Illustrator 19.2.0, SVG Export Plug-In . SVG Version: 6.00 Build 0)  -->
<svg version="1.1" id="Layer_1" xmlns="http://www.w3.org/2000/svg" xmlns:xlink="http://www.w3.org/1999/xlink" x="0px" y="0px"
	 width="1501.6px" height="1272.5px" viewBox="0 0 1501.6 1272.5" style="enable-background:new 0 0 1501.6 1272.5;"
	 xml:space="preserve">
<style type="text/css">
	.st0{fill:#2D2E30;}
	.st1{fill:#841F1B;}
	.st2{fill:#030405;}
</style>
<g>
	<polygon class="st0" points="1083.4,212.2 822.9,636 997.7,636 1083.4,496.6 	"/>
	<polygon class="st1" points="737.1,1060.3 606.8,1272.5 346.3,1272.5 737.1,636.3 	"/>
	<polygon class="st1" points="1348.6,166.7 1131.6,519.9 1131.6,590.7 1392.1,166.7 	"/>
	<polygon class="st2" points="1176.3,735.4 1393.4,382.3 1393.4,311.4 1132.9,735.4 	"/>
	<polygon class="st2" points="84.8,989.4 301.9,636.3 301.9,565.4 41.4,989.4 	"/>
	<polygon class="st1" points="518.9,141.4 301.9,494.5 301.9,565.4 562.4,141.4 	"/>
	<polygon class="st1" points="624,632.2 668.6,560.6 754.5,560.6 624.2,772.8 	"/>
	<polygon class="st1" points="1304.8,549.4 1349.4,477.8 1435.3,477.8 1305,689.9 	"/>
	<polygon class="st2" points="1171.9,962.1 1127.3,1033.7 1041.4,1033.7 1171.7,821.5 	"/>
	<polygon class="st2" points="1241.1,1148.3 1501.6,724.4 1326.8,724.4 1241.1,863.9 	"/>
	<polygon class="st1" points="386.1,92.9 207.2,384 327.2,384 386.1,288.2 	"/>
	<polygon class="st1" points="953.2,569 1213.7,145.1 1038.9,145.1 953.2,284.6 	"/>
	<polygon class="st2" points="798.9,811.6 929.2,599.4 1189.8,599.4 798.9,1235.7 	"/>
	<polygon class="st2" points="867.6,564.6 823,636.3 737.1,636.3 867.5,424.1 	"/>
	<polygon class="st2" points="953.2,0.2 692.7,424.1 867.5,424.1 953.2,284.6 	"/>
	<polygon class="st2" points="521,703.5 260.5,1127.4 435.3,1127.4 521,987.9 	"/>
	<polygon class="st1" points="692.7,424.1 562.4,636.3 301.9,636.3 692.7,0 	"/>
	<polygon class="st0" points="260.5,775.8 0,1199.7 174.8,1199.7 260.5,1060.2 	"/>
	<polygon class="st0" points="791.6,980.5 1021.6,606.4 1021.6,531.3 745.6,980.5 	"/>
</g>
</svg>
